<svg xmlns="http://www.w3.org/2000/svg" width="72" height="72" viewBox="0 0 72 72">
  <rect width="72" height="72" fill="#173d2d"/>
  <rect x="26" y="18" width="4" height="4" fill="#0f2e22"/>
    <rect x="38" y="18" width="4" height="4" fill="#0f2e22"/>
    <rect x="22" y="22" width="4" height="4" fill="#0f2e22"/>
    <rect x="26" y="22" width="4" height="4" fill="#0f2e22"/>
    <rect x="38" y="22" width="4" height="4" fill="#0f2e22"/>
    <rect x="42" y="22" width="4" height="4" fill="#0f2e22"/>
    <rect x="22" y="26" width="4" height="4" fill="#0f2e22"/>
    <rect x="26" y="26" width="4" height="4" fill="#0f2e22"/>
    <rect x="30" y="26" width="4" height="4" fill="#0f2e22"/>
    <rect x="38" y="26" width="4" height="4" fill="#0f2e22"/>
    <rect x="42" y="26" width="4" height="4" fill="#0f2e22"/>
    <rect x="46" y="26" width="4" height="4" fill="#0f2e22"/>
    <rect x="22" y="30" width="4" height="4" fill="#0f2e22"/>
    <rect x="26" y="30" width="4" height="4" fill="#0f2e22"/>
    <rect x="30" y="30" width="4" height="4" fill="#0f2e22"/>
    <rect x="34" y="30" width="4" height="4" fill="#0f2e22"/>
    <rect x="38" y="30" width="4" height="4" fill="#0f2e22"/>
    <rect x="42" y="30" width="4" height="4" fill="#0f2e22"/>
    <rect x="46" y="30" width="4" height="4" fill="#0f2e22"/>
    <rect x="18" y="34" width="4" height="4" fill="#0f2e22"/>
    <rect x="22" y="34" width="4" height="4" fill="#0f2e22"/>
    <rect x="26" y="34" width="4" height="4" fill="#0f2e22"/>
    <rect x="30" y="34" width="4" height="4" fill="#0f2e22"/>
    <rect x="34" y="34" width="4" height="4" fill="#0f2e22"/>
    <rect x="38" y="34" width="4" height="4" fill="#0f2e22"/>
    <rect x="42" y="34" width="4" height="4" fill="#0f2e22"/>
    <rect x="46" y="34" width="4" height="4" fill="#0f2e22"/>
    <rect x="50" y="34" width="4" height="4" fill="#0f2e22"/>
    <rect x="22" y="38" width="4" height="4" fill="#0f2e22"/>
    <rect x="26" y="38" width="4" height="4" fill="#0f2e22"/>
    <rect x="30" y="38" width="4" height="4" fill="#0f2e22"/>
    <rect x="34" y="38" width="4" height="4" fill="#0f2e22"/>
    <rect x="38" y="38" width="4" height="4" fill="#0f2e22"/>
    <rect x="42" y="38" width="4" height="4" fill="#0f2e22"/>
    <rect x="46" y="38" width="4" height="4" fill="#0f2e22"/>
    <rect x="34" y="42" width="4" height="4" fill="#0f2e22"/>
    <rect x="34" y="46" width="4" height="4" fill="#0f2e22"/>
    <rect x="30" y="50" width="4" height="4" fill="#0f2e22"/>
    <rect x="34" y="50" width="4" height="4" fill="#0f2e22"/>
    <rect x="38" y="50" width="4" height="4" fill="#0f2e22"/>
</svg>