<svg xmlns="http://www.w3.org/2000/svg" width="520" height="520" viewBox="0 0 520 520">
  <g opacity="0.85">
    <animate attributeName="opacity" values="0.55;1;0.55" dur="3.2s" begin="0.3s" repeatCount="indefinite"/>
    <rect x="99" y="212" width="4" height="4" fill="#f2c14e"/>
    <rect x="95" y="216" width="4" height="4" fill="#f2c14e"/>
    <rect x="99" y="216" width="4" height="4" fill="#f2c14e"/>
    <rect x="103" y="216" width="4" height="4" fill="#f2c14e"/>
    <rect x="91" y="220" width="4" height="4" fill="#f2c14e"/>
    <rect x="95" y="220" width="4" height="4" fill="#f2c14e"/>
    <rect x="99" y="220" width="4" height="4" fill="#f2c14e"/>
    <rect x="103" y="220" width="4" height="4" fill="#f2c14e"/>
    <rect x="107" y="220" width="4" height="4" fill="#f2c14e"/>
    <rect x="87" y="224" width="4" height="4" fill="#f2c14e"/>
    <rect x="91" y="224" width="4" height="4" fill="#f2c14e"/>
    <rect x="95" y="224" width="4" height="4" fill="#f2c14e"/>
    <rect x="99" y="224" width="4" height="4" fill="#f2c14e"/>
    <rect x="103" y="224" width="4" height="4" fill="#f2c14e"/>
    <rect x="107" y="224" width="4" height="4" fill="#f2c14e"/>
    <rect x="111" y="224" width="4" height="4" fill="#f2c14e"/>
    <rect x="91" y="228" width="4" height="4" fill="#f2c14e"/>
    <rect x="95" y="228" width="4" height="4" fill="#f2c14e"/>
    <rect x="99" y="228" width="4" height="4" fill="#f2c14e"/>
    <rect x="103" y="228" width="4" height="4" fill="#f2c14e"/>
    <rect x="107" y="228" width="4" height="4" fill="#f2c14e"/>
    <rect x="95" y="232" width="4" height="4" fill="#f2c14e"/>
    <rect x="99" y="232" width="4" height="4" fill="#f2c14e"/>
    <rect x="103" y="232" width="4" height="4" fill="#f2c14e"/>
    <rect x="99" y="236" width="4" height="4" fill="#f2c14e"/>
  </g><g opacity="0.85">
    <animate attributeName="opacity" values="0.55;1;0.55" dur="4.1s" begin="2.5s" repeatCount="indefinite"/>
    <rect x="49" y="47" width="5" height="5" fill="#f2c14e"/>
    <rect x="44" y="52" width="5" height="5" fill="#f2c14e"/>
    <rect x="49" y="52" width="5" height="5" fill="#f2c14e"/>
    <rect x="54" y="52" width="5" height="5" fill="#f2c14e"/>
    <rect x="39" y="57" width="5" height="5" fill="#f2c14e"/>
    <rect x="44" y="57" width="5" height="5" fill="#f2c14e"/>
    <rect x="49" y="57" width="5" height="5" fill="#f2c14e"/>
    <rect x="54" y="57" width="5" height="5" fill="#f2c14e"/>
    <rect x="59" y="57" width="5" height="5" fill="#f2c14e"/>
    <rect x="34" y="62" width="5" height="5" fill="#f2c14e"/>
    <rect x="39" y="62" width="5" height="5" fill="#f2c14e"/>
    <rect x="44" y="62" width="5" height="5" fill="#f2c14e"/>
    <rect x="49" y="62" width="5" height="5" fill="#f2c14e"/>
    <rect x="54" y="62" width="5" height="5" fill="#f2c14e"/>
    <rect x="59" y="62" width="5" height="5" fill="#f2c14e"/>
    <rect x="64" y="62" width="5" height="5" fill="#f2c14e"/>
    <rect x="39" y="67" width="5" height="5" fill="#f2c14e"/>
    <rect x="44" y="67" width="5" height="5" fill="#f2c14e"/>
    <rect x="49" y="67" width="5" height="5" fill="#f2c14e"/>
    <rect x="54" y="67" width="5" height="5" fill="#f2c14e"/>
    <rect x="59" y="67" width="5" height="5" fill="#f2c14e"/>
    <rect x="44" y="72" width="5" height="5" fill="#f2c14e"/>
    <rect x="49" y="72" width="5" height="5" fill="#f2c14e"/>
    <rect x="54" y="72" width="5" height="5" fill="#f2c14e"/>
    <rect x="49" y="77" width="5" height="5" fill="#f2c14e"/>
  </g><g opacity="0.85">
    <animate attributeName="opacity" values="0.55;1;0.55" dur="3.3s" begin="0.7s" repeatCount="indefinite"/>
    <rect x="54" y="475" width="5" height="5" fill="#f2c14e"/>
    <rect x="49" y="480" width="5" height="5" fill="#f2c14e"/>
    <rect x="54" y="480" width="5" height="5" fill="#f2c14e"/>
    <rect x="59" y="480" width="5" height="5" fill="#f2c14e"/>
    <rect x="44" y="485" width="5" height="5" fill="#f2c14e"/>
    <rect x="49" y="485" width="5" height="5" fill="#f2c14e"/>
    <rect x="54" y="485" width="5" height="5" fill="#f2c14e"/>
    <rect x="59" y="485" width="5" height="5" fill="#f2c14e"/>
    <rect x="64" y="485" width="5" height="5" fill="#f2c14e"/>
    <rect x="39" y="490" width="5" height="5" fill="#f2c14e"/>
    <rect x="44" y="490" width="5" height="5" fill="#f2c14e"/>
    <rect x="49" y="490" width="5" height="5" fill="#f2c14e"/>
    <rect x="54" y="490" width="5" height="5" fill="#f2c14e"/>
    <rect x="59" y="490" width="5" height="5" fill="#f2c14e"/>
    <rect x="64" y="490" width="5" height="5" fill="#f2c14e"/>
    <rect x="69" y="490" width="5" height="5" fill="#f2c14e"/>
    <rect x="44" y="495" width="5" height="5" fill="#f2c14e"/>
    <rect x="49" y="495" width="5" height="5" fill="#f2c14e"/>
    <rect x="54" y="495" width="5" height="5" fill="#f2c14e"/>
    <rect x="59" y="495" width="5" height="5" fill="#f2c14e"/>
    <rect x="64" y="495" width="5" height="5" fill="#f2c14e"/>
    <rect x="49" y="500" width="5" height="5" fill="#f2c14e"/>
    <rect x="54" y="500" width="5" height="5" fill="#f2c14e"/>
    <rect x="59" y="500" width="5" height="5" fill="#f2c14e"/>
    <rect x="54" y="505" width="5" height="5" fill="#f2c14e"/>
  </g><g opacity="0.85">
    <animate attributeName="opacity" values="0.55;1;0.55" dur="4.6s" begin="2.8s" repeatCount="indefinite"/>
    <rect x="134" y="29" width="5" height="5" fill="#f2c14e"/>
    <rect x="129" y="34" width="5" height="5" fill="#f2c14e"/>
    <rect x="134" y="34" width="5" height="5" fill="#f2c14e"/>
    <rect x="139" y="34" width="5" height="5" fill="#f2c14e"/>
    <rect x="124" y="39" width="5" height="5" fill="#f2c14e"/>
    <rect x="129" y="39" width="5" height="5" fill="#f2c14e"/>
    <rect x="134" y="39" width="5" height="5" fill="#f2c14e"/>
    <rect x="139" y="39" width="5" height="5" fill="#f2c14e"/>
    <rect x="144" y="39" width="5" height="5" fill="#f2c14e"/>
    <rect x="119" y="44" width="5" height="5" fill="#f2c14e"/>
    <rect x="124" y="44" width="5" height="5" fill="#f2c14e"/>
    <rect x="129" y="44" width="5" height="5" fill="#f2c14e"/>
    <rect x="134" y="44" width="5" height="5" fill="#f2c14e"/>
    <rect x="139" y="44" width="5" height="5" fill="#f2c14e"/>
    <rect x="144" y="44" width="5" height="5" fill="#f2c14e"/>
    <rect x="149" y="44" width="5" height="5" fill="#f2c14e"/>
    <rect x="124" y="49" width="5" height="5" fill="#f2c14e"/>
    <rect x="129" y="49" width="5" height="5" fill="#f2c14e"/>
    <rect x="134" y="49" width="5" height="5" fill="#f2c14e"/>
    <rect x="139" y="49" width="5" height="5" fill="#f2c14e"/>
    <rect x="144" y="49" width="5" height="5" fill="#f2c14e"/>
    <rect x="129" y="54" width="5" height="5" fill="#f2c14e"/>
    <rect x="134" y="54" width="5" height="5" fill="#f2c14e"/>
    <rect x="139" y="54" width="5" height="5" fill="#f2c14e"/>
    <rect x="134" y="59" width="5" height="5" fill="#f2c14e"/>
  </g><g opacity="0.85">
    <animate attributeName="opacity" values="0.55;1;0.55" dur="4.4s" begin="1.2s" repeatCount="indefinite"/>
    <rect x="241" y="224" width="3" height="3" fill="#f2c14e"/>
    <rect x="238" y="227" width="3" height="3" fill="#f2c14e"/>
    <rect x="241" y="227" width="3" height="3" fill="#f2c14e"/>
    <rect x="244" y="227" width="3" height="3" fill="#f2c14e"/>
    <rect x="235" y="230" width="3" height="3" fill="#f2c14e"/>
    <rect x="238" y="230" width="3" height="3" fill="#f2c14e"/>
    <rect x="241" y="230" width="3" height="3" fill="#f2c14e"/>
    <rect x="244" y="230" width="3" height="3" fill="#f2c14e"/>
    <rect x="247" y="230" width="3" height="3" fill="#f2c14e"/>
    <rect x="232" y="233" width="3" height="3" fill="#f2c14e"/>
    <rect x="235" y="233" width="3" height="3" fill="#f2c14e"/>
    <rect x="238" y="233" width="3" height="3" fill="#f2c14e"/>
    <rect x="241" y="233" width="3" height="3" fill="#f2c14e"/>
    <rect x="244" y="233" width="3" height="3" fill="#f2c14e"/>
    <rect x="247" y="233" width="3" height="3" fill="#f2c14e"/>
    <rect x="250" y="233" width="3" height="3" fill="#f2c14e"/>
    <rect x="235" y="236" width="3" height="3" fill="#f2c14e"/>
    <rect x="238" y="236" width="3" height="3" fill="#f2c14e"/>
    <rect x="241" y="236" width="3" height="3" fill="#f2c14e"/>
    <rect x="244" y="236" width="3" height="3" fill="#f2c14e"/>
    <rect x="247" y="236" width="3" height="3" fill="#f2c14e"/>
    <rect x="238" y="239" width="3" height="3" fill="#f2c14e"/>
    <rect x="241" y="239" width="3" height="3" fill="#f2c14e"/>
    <rect x="244" y="239" width="3" height="3" fill="#f2c14e"/>
    <rect x="241" y="242" width="3" height="3" fill="#f2c14e"/>
  </g>
</svg>